# xmcd
#
# Track frame offsets: 
#        150
#        10355
#        35106
#        54786
#        81034
#        117563
#        149590
#        166937
#        183070
#        203771
#        232731
#        247205
#
# Disc length: 3516 seconds
#
# Revision: 3
# Processed by: cddbd v1.5.2PL0 Copyright (c) Steve Scherf et al.
# Submitted via: ExactAudioCopy v1.0b3
#
DISCID=9d0dba0c
DTITLE=郭兰英 - 中国著名歌唱家演唱专辑：郭兰英
DYEAR=2000
DGENRE=Folk
TTITLE0=南泥湾
TTITLE1=我的祖国
TTITLE2=北风吹—扎红头绳
TTITLE3=托梦.笑见青天开
TTITLE4=为什么二黑哥还不回来
TTITLE5=八月十五月儿明
TTITLE6=妇女自由歌
TTITLE7=一道道水来一道道山
TTITLE8=恨似高山仇似海
TTITLE9=眼看红军出征北上
TTITLE10=翻身道情
TTITLE11=人说山西好风光
EXTD=
EXTT0=
EXTT1=
EXTT2=
EXTT3=
EXTT4=
EXTT5=
EXTT6=
EXTT7=
EXTT8=
EXTT9=
EXTT10=
EXTT11=
PLAYORDER=
